<?xml version="1.0" encoding="UTF-8" standalone="no"?> <svg xmlns="http://www.w3.org/2000/svg" viewBox="0 0 64 64"><g id="Layer_67" data-name="Layer 67"><path d="M17.52,25.88a2.69,2.69,0,1,0,2.68,2.68A2.68,2.68,0,0,0,17.52,25.88Zm0,3.37a.69.69,0,0,1-.69-.69.68.68,0,0,1,.69-.68.67.67,0,0,1,.68.68A.68.68,0,0,1,17.52,29.25Z"/><path d="M61,16.48a12.13,12.13,0,0,0-24.26-.26A25.26,25.26,0,0,0,30,15.3a24.78,24.78,0,0,0-8.5,1.48l-8.13-6a1,1,0,0,0-1.16,0,1,1,0,0,0-.4,1.08L14.23,21A19,19,0,0,0,8.48,29.6H4a1,1,0,0,0-1,1.22l1.86,8.52a1,1,0,0,0,1,.79H8.47a20.05,20.05,0,0,0,9.7,11.33v7.2a1,1,0,0,0,1,1h4.11a1,1,0,0,0,.95-.69l1.59-4.88a25.2,25.2,0,0,0,8.37,0L35.77,59a1,1,0,0,0,.95.69h4.11a1,1,0,0,0,1-1v-7.2C48,48.08,52,42.18,52.33,35.78A5.64,5.64,0,0,0,57,30.22a1,1,0,0,0-2,0,3.63,3.63,0,0,1-2.68,3.5A17.29,17.29,0,0,0,51.1,28.4,12.14,12.14,0,0,0,61,16.48ZM48.86,6.34a10.14,10.14,0,1,1-6.12,18.21c-.2-.18-.42-.36-.63-.53A10.12,10.12,0,0,1,48.86,6.34Zm1.5,28.53c0,6.18-3.83,12-10,15.11a1,1,0,0,0-.52.75s0,.05,0,.14v6.79H37.45l-1.63-5a.2.2,0,0,0-.07-.12A1,1,0,0,0,34.66,52a23.58,23.58,0,0,1-9.32,0,1,1,0,0,0-1.16.67l-1.63,5H20.17V50.87a.24.24,0,0,0,0-.13,1,1,0,0,0-.52-.76,18.07,18.07,0,0,1-9.46-11.11,1,1,0,0,0-1-.74H6.66L5.24,31.6h4a1,1,0,0,0,1-.74A17.06,17.06,0,0,1,16,22.14a1.05,1.05,0,0,0,.33-1l-1.85-7,6.27,4.62a1,1,0,0,0,.49.17c.13.05.33,0,.46-.05A22.79,22.79,0,0,1,30,17.3a23.26,23.26,0,0,1,6.88,1,12.14,12.14,0,0,0,.93,3.14A19.79,19.79,0,0,0,32.1,20a1,1,0,1,0-.2,2,17.24,17.24,0,0,1,8.84,3.45c.25.22.51.44.78.65a12,12,0,0,1,4.1,7.32,1,1,0,0,0,1,.87h.13a1,1,0,0,0,.86-1.12,13,13,0,0,0-1.76-5,12.08,12.08,0,0,0,3,.4H49A15.31,15.31,0,0,1,50.36,34.87Z"/><path d="M48,17.48H49.7a1.15,1.15,0,0,1,1.18,1.11,1.08,1.08,0,0,1-.33.77,1.25,1.25,0,0,1-.85.34H46.51a1,1,0,0,0,0,2h1.35v1.4a1,1,0,1,0,2,0V21.68a3.22,3.22,0,0,0,2.08-.88,3.1,3.1,0,0,0-2.24-5.32H48a1.15,1.15,0,0,1-1.18-1.11,1.05,1.05,0,0,1,.34-.77,1.21,1.21,0,0,1,.84-.33h3.19a1,1,0,0,0,0-2H49.86V9.86a1,1,0,0,0-2,0v1.42a3.17,3.17,0,0,0-2.07.88,3.11,3.11,0,0,0-.95,2.21A3.15,3.15,0,0,0,48,17.48Z"/></g></svg>