<?xml version="1.0" encoding="UTF-8"?>
<!DOCTYPE svg PUBLIC "-//W3C//DTD SVG 1.1//EN" "http://www.w3.org/Graphics/SVG/1.1/DTD/svg11.dtd">
<!-- Creator: CorelDRAW -->
<svg xmlns="http://www.w3.org/2000/svg" xml:space="preserve" width="1.70666in" height="1.70666in" version="1.1" style="shape-rendering:geometricPrecision; text-rendering:geometricPrecision; image-rendering:optimizeQuality; fill-rule:evenodd; clip-rule:evenodd"
viewBox="0 0 1707 1707"
 xmlns:xlink="http://www.w3.org/1999/xlink">
 <defs>
  <style type="text/css">
   <![CDATA[
    .fil0 {fill:#000002}
   ]]>
  </style>
 </defs>
 <g id="Layer_x0020_1">
  <metadata id="CorelCorpID_0Corel-Layer"/>
  <path class="fil0" d="M974 836c-11,0 -104,-47 -121,-55l-110 53c-16,8 -35,-6 -33,-24l17 -121 -85 -89c-12,-13 -5,-35 13,-38l120 -22 58 -108c9,-16 32,-16 40,0l58 108 121 22c18,3 25,25 13,38l-85 89 16 121c2,14 -9,26 -22,26zm-482 870c-10,0 -19,-6 -22,-15l-60 -186 -169 104c-19,12 -41,-7 -33,-28l240 -593 -125 -35c-12,-4 -19,-16 -16,-28l41 -161 -116 -120c-9,-9 -9,-23 0,-32l116 -119 -41 -162c-3,-12 4,-24 16,-27l160 -46 46 -160c3,-12 15,-19 27,-16l162 41 120 -116c8,-9 22,-9 31,0l120 116 161 -41c12,-3 25,4 28,16l45 160 161 46c12,3 19,15 16,27l-41 162 116 119c9,9 9,23 0,32l-116 120 41 161c3,12 -4,24 -16,28l-126 35 241 593c8,21 -15,40 -33,28l-169 -104 -60 186c-7,20 -35,21 -43,1l-220 -544 -105 102c-9,8 -23,8 -32,0l-104 -102 -220 544c-4,9 -12,14 -21,14zm-4 -694l-212 522 135 -82c12,-8 29,-2 33,12l50 153 193 -476 -131 33c-12,3 -24,-4 -27,-15l-41 -147zm487 75c5,-2 9,-2 13,-1l152 39 43 -152c2,-7 8,-13 16,-15l151 -43 -39 -152c-1,-8 1,-17 6,-22l110 -113 -110 -112c-5,-6 -7,-15 -6,-22l39 -153 -151 -42c-8,-3 -14,-9 -16,-16l-43 -152 -152 39c-8,2 -16,0 -22,-6l-113 -109c-16,16 -110,111 -122,115 -4,1 -8,1 -12,0l-152 -39 -43 152c-2,7 -8,13 -16,16l-151 42 38 153c2,7 0,16 -6,22l-109 112 109 113c6,5 8,14 6,22l-38 152 151 43c8,2 14,8 16,15l43 152 157 -39c6,0 12,2 17,6l112 110c17,-16 111,-112 122,-115zm45 54l193 476 49 -153c5,-14 21,-20 34,-12l135 82 -212 -522 -41 147c-3,11 -16,18 -28,15l-130 -33zm-167 -139c-206,0 -374,-168 -374,-374 0,-206 168,-374 374,-374 207,0 374,168 374,374 0,206 -167,374 -374,374zm0 -703c-181,0 -328,148 -328,329 0,181 147,329 328,329 182,0 329,-148 329,-329 0,-181 -147,-329 -329,-329zm0 434c11,0 78,35 93,42l-13 -91c-1,-7 2,-14 6,-19l63 -66 -89 -16c-7,-1 -13,-6 -16,-12l-44 -80 -43 80c-3,6 -9,11 -16,12l-90 16 63 66c5,5 7,12 6,19l-12 91c14,-7 82,-42 92,-42z"/>
 </g>
</svg>
