<?xml version="1.0" encoding="UTF-8"?>
<!DOCTYPE svg PUBLIC "-//W3C//DTD SVG 1.1//EN" "http://www.w3.org/Graphics/SVG/1.1/DTD/svg11.dtd">
<!-- Creator: CorelDRAW -->
<svg xmlns="http://www.w3.org/2000/svg" xml:space="preserve" width="1.70666in" height="1.70666in" version="1.1" style="shape-rendering:geometricPrecision; text-rendering:geometricPrecision; image-rendering:optimizeQuality; fill-rule:evenodd; clip-rule:evenodd"
viewBox="0 0 1707 1707"
 xmlns:xlink="http://www.w3.org/1999/xlink">
 <defs>
  <style type="text/css">
   <![CDATA[
    .fil0 {fill:#000002}
   ]]>
  </style>
 </defs>
 <g id="Layer_x0020_1">
  <metadata id="CorelCorpID_0Corel-Layer"/>
  <path class="fil0" d="M791 1011c-10,0 -20,-5 -28,-12l-110 -111c-38,-37 19,-93 56,-56l82 82 206 -206c38,-37 94,19 57,56l-234 235c-8,7 -18,12 -29,12zm62 696c-3,0 -7,-1 -10,-2 -353,-93 -527,-313 -611,-482 -91,-182 -98,-342 -98,-349l0 -721c0,-30 33,-50 60,-34 245,141 545,-38 634,-110 15,-12 36,-12 50,0 90,72 390,251 635,110 26,-16 60,4 60,34l0 721c0,7 -8,167 -98,349 -84,169 -258,389 -611,482 -4,1 -7,2 -11,2zm-639 -834c1,10 10,156 91,318 110,218 294,365 548,434 254,-69 439,-216 549,-434 81,-162 90,-307 91,-318l0 -656c-244,98 -506,-32 -640,-127 -140,100 -400,224 -639,127l0 656 0 0zm639 376c-218,0 -395,-178 -395,-396 0,-218 177,-395 395,-395 218,0 396,177 396,395 0,218 -178,396 -396,396zm0 -711c-174,0 -315,141 -315,315 0,174 141,316 315,316 174,0 316,-142 316,-316 0,-174 -142,-315 -316,-315z"/>
 </g>
</svg>
