<?xml version="1.0" encoding="UTF-8" standalone="no"?> <svg id="Layer_1" data-name="Layer 1" xmlns="http://www.w3.org/2000/svg" viewBox="0 0 100 100"><path d="M11.75,95.865h30.4l.015,0a1.535,1.535,0,0,0,.279-.028,1.278,1.278,0,0,0,.163-.049,1.214,1.214,0,0,0,.117-.036,1.537,1.537,0,0,0,.175-.093c.027-.016.057-.027.083-.045a1.437,1.437,0,0,0,.23-.189l46.1-46.1a1.5,1.5,0,0,0,.439-1.06v-7.82c0-.024-.009-.046-.01-.07a1.67,1.67,0,0,0-.033-.22,1.6,1.6,0,0,0-.054-.217c-.008-.022-.008-.045-.017-.067-.019-.045-.051-.08-.073-.122a1.424,1.424,0,0,0-.118-.2,1.369,1.369,0,0,0-.144-.16,1.574,1.574,0,0,0-.16-.145,1.6,1.6,0,0,0-.2-.117c-.042-.022-.077-.054-.122-.073-.022-.009-.046-.009-.068-.017a1.4,1.4,0,0,0-.212-.053,1.38,1.38,0,0,0-.228-.034c-.022,0-.043-.01-.066-.01H78.46V25.354L89.311,14.5a1.5,1.5,0,0,0,.439-1.06v-7.8c0-.024-.009-.045-.01-.069a1.645,1.645,0,0,0-.033-.22,1.564,1.564,0,0,0-.054-.217c-.008-.022-.008-.046-.017-.068-.019-.045-.051-.079-.073-.121a1.5,1.5,0,0,0-.118-.2,2.048,2.048,0,0,0-.3-.3,1.379,1.379,0,0,0-.2-.117,1.157,1.157,0,0,0-.122-.073c-.022-.01-.045-.009-.068-.018a1.521,1.521,0,0,0-.214-.053,1.575,1.575,0,0,0-.224-.034c-.024,0-.045-.01-.068-.01H57.85a1.5,1.5,0,0,0-1.06.44l-46.1,46.1a1.511,1.511,0,0,0-.238.321c-.015.026-.029.052-.043.079a1.5,1.5,0,0,0-.13.367l0,.017a1.506,1.506,0,0,0-.028.278v7.82a1.5,1.5,0,0,0,1.5,1.5h9.79V74.634L10.691,85.482a1.5,1.5,0,0,0-.327.493L10.357,86a1.49,1.49,0,0,0-.107.548h0v7.82A1.5,1.5,0,0,0,11.75,95.865Zm75-48.221-43.1,43.1V87.166l43.1-43.1Zm-11.29-7.82-.7.7L63.455,51.83a1.5,1.5,0,0,0,2.121,2.121l4.375-4.376h0l7.629-7.63h7.048l-43.1,43.1H34.481L51.888,67.638h0l.153-.152a1.5,1.5,0,1,0-2.122-2.121L32.36,82.924V61.055h9.79c.011,0,.022,0,.033,0a1.5,1.5,0,0,0,.259-.025h0a1.429,1.429,0,0,0,.161-.049c.038-.012.078-.02.115-.035l0,0a1.362,1.362,0,0,0,.173-.092c.027-.015.056-.027.082-.044l0,0a1.433,1.433,0,0,0,.229-.188L75.46,28.355Zm11.29-27L75.914,23.659l-.015.01L43.65,55.933V52.356l43.1-43.1ZM58.471,7.135H84.629l-43.1,43.1H15.371ZM13.25,58.055v-4.82h27.4v4.82H30.86a1.5,1.5,0,0,0-1.5,1.5v26.99c0,.031.007.061.009.092s.006.068.01.1a1.489,1.489,0,0,0,.04.2c.008.03.017.059.028.089s.014.055.025.08l0,.01v0a1.5,1.5,0,0,0,.134.25l0,.009c.019.028.044.053.065.08s.039.049.06.072a1.412,1.412,0,0,0,.134.134c.023.021.047.04.072.06s.051.046.08.065l.01.005a1.415,1.415,0,0,0,.249.133l0,0c.025.01.052.014.078.023l.011,0,.09.028c.034.009.065.022.1.029a1.467,1.467,0,0,0,.294.03H40.65v4.82H13.25v-4.82h9.79a1.5,1.5,0,0,0,1.5-1.5V75.617a1.48,1.48,0,0,0,0-.9V59.555a1.5,1.5,0,0,0-1.5-1.5Zm8.29,26.99H15.371l6.169-6.169Z"/><path d="M53.41,65.41a1.5,1.5,0,0,0,1.5-1.5,1.5,1.5,0,0,0-.44-1.06,1.548,1.548,0,0,0-2.12,0,1.3,1.3,0,0,0-.19.22c-.05.09-.1.17-.14.26a1.473,1.473,0,0,0-.08.28,1.5,1.5,0,0,0,.41,1.36A1.481,1.481,0,0,0,53.41,65.41Z"/><path d="M56.92,61.28a2.148,2.148,0,0,0,.26.14,2.288,2.288,0,0,0,.28.08,1.417,1.417,0,0,0,.58,0,2.288,2.288,0,0,0,.28-.08,2.148,2.148,0,0,0,.26-.14,2.11,2.11,0,0,0,.23-.19,1.5,1.5,0,0,0,.44-1.06,1.516,1.516,0,0,0-.44-1.06,2.11,2.11,0,0,0-.23-.19,1.264,1.264,0,0,0-.26-.13,1.309,1.309,0,0,0-.28-.09,1.417,1.417,0,0,0-.58,0,1.309,1.309,0,0,0-.28.09,1.264,1.264,0,0,0-.26.13,1.454,1.454,0,0,0-.23.19,1.516,1.516,0,0,0-.44,1.06,1.5,1.5,0,0,0,.44,1.06A1.454,1.454,0,0,0,56.92,61.28Z"/><path d="M60.43,56.67a1.1,1.1,0,0,0,.14.26,1.239,1.239,0,0,0,.18.22,1.5,1.5,0,0,0,1.36.41,1.473,1.473,0,0,0,.28-.08,1.229,1.229,0,0,0,.25-.14,1.059,1.059,0,0,0,.23-.19,2,2,0,0,0,.19-.22c.05-.09.1-.17.14-.26s.06-.19.08-.28a1.526,1.526,0,0,0,.03-.3,1.5,1.5,0,0,0-.03-.29c-.02-.09-.05-.19-.08-.28a2.148,2.148,0,0,0-.14-.26,2.11,2.11,0,0,0-.19-.23,1.018,1.018,0,0,0-.23-.18,1.229,1.229,0,0,0-.25-.14,1.518,1.518,0,0,0-.28-.09,1.543,1.543,0,0,0-1.36.41,1.3,1.3,0,0,0-.18.23.939.939,0,0,0-.14.26,1.429,1.429,0,0,0,0,1.15Z"/></svg>